<mxfile host="app.diagrams.net" modified="2023-07-22T14:03:41.563Z" agent="Mozilla/5.0 (Windows NT 10.0; Win64; x64) AppleWebKit/537.36 (KHTML, like Gecko) Chrome/114.0.0.0 Safari/537.36 Edg/114.0.1823.82" etag="SED2T2gUwLzhtXMuikdH" version="21.6.5" type="github">
  <diagram id="kgpKYQtTHZ0yAKxKKP6v" name="Page-1">
    <mxGraphModel dx="797" dy="746" grid="1" gridSize="10" guides="1" tooltips="1" connect="1" arrows="1" fold="1" page="1" pageScale="1" pageWidth="850" pageHeight="1100" math="0" shadow="0">
      <root>
        <mxCell id="0" />
        <mxCell id="1" parent="0" />
        <mxCell id="v3ZjU44f4ItKbDlVjQA1-1" value="Aktor" style="swimlane;whiteSpace=wrap;html=1;" vertex="1" parent="1">
          <mxGeometry x="180" y="80" width="250" height="710" as="geometry" />
        </mxCell>
        <mxCell id="v3ZjU44f4ItKbDlVjQA1-36" style="edgeStyle=orthogonalEdgeStyle;rounded=0;orthogonalLoop=1;jettySize=auto;html=1;entryX=0.5;entryY=0;entryDx=0;entryDy=0;" edge="1" parent="v3ZjU44f4ItKbDlVjQA1-1" source="v3ZjU44f4ItKbDlVjQA1-3" target="v3ZjU44f4ItKbDlVjQA1-21">
          <mxGeometry relative="1" as="geometry" />
        </mxCell>
        <mxCell id="v3ZjU44f4ItKbDlVjQA1-3" value="" style="ellipse;html=1;shape=endState;fillColor=#000000;strokeColor=#ff0000;" vertex="1" parent="v3ZjU44f4ItKbDlVjQA1-1">
          <mxGeometry x="112.5" y="60" width="30" height="30" as="geometry" />
        </mxCell>
        <mxCell id="v3ZjU44f4ItKbDlVjQA1-21" value="Klik Data Siswa" style="rounded=1;whiteSpace=wrap;html=1;" vertex="1" parent="v3ZjU44f4ItKbDlVjQA1-1">
          <mxGeometry x="40" y="140" width="175" height="30" as="geometry" />
        </mxCell>
        <mxCell id="v3ZjU44f4ItKbDlVjQA1-22" value="Pilih Kelas" style="rounded=1;whiteSpace=wrap;html=1;" vertex="1" parent="v3ZjU44f4ItKbDlVjQA1-1">
          <mxGeometry x="40" y="220" width="175" height="30" as="geometry" />
        </mxCell>
        <mxCell id="v3ZjU44f4ItKbDlVjQA1-42" style="edgeStyle=orthogonalEdgeStyle;rounded=0;orthogonalLoop=1;jettySize=auto;html=1;entryX=0.5;entryY=0;entryDx=0;entryDy=0;" edge="1" parent="v3ZjU44f4ItKbDlVjQA1-1" source="v3ZjU44f4ItKbDlVjQA1-25" target="v3ZjU44f4ItKbDlVjQA1-27">
          <mxGeometry relative="1" as="geometry" />
        </mxCell>
        <mxCell id="v3ZjU44f4ItKbDlVjQA1-25" value="Memilih Kelas" style="rounded=1;whiteSpace=wrap;html=1;" vertex="1" parent="v3ZjU44f4ItKbDlVjQA1-1">
          <mxGeometry x="37.5" y="370" width="175" height="30" as="geometry" />
        </mxCell>
        <mxCell id="v3ZjU44f4ItKbDlVjQA1-27" value="Memilih Data yang Akan di Edit" style="rounded=1;whiteSpace=wrap;html=1;" vertex="1" parent="v3ZjU44f4ItKbDlVjQA1-1">
          <mxGeometry x="37.5" y="440" width="175" height="30" as="geometry" />
        </mxCell>
        <mxCell id="v3ZjU44f4ItKbDlVjQA1-28" value="Simpan Data" style="rounded=1;whiteSpace=wrap;html=1;" vertex="1" parent="v3ZjU44f4ItKbDlVjQA1-1">
          <mxGeometry x="40" y="560" width="175" height="30" as="geometry" />
        </mxCell>
        <mxCell id="v3ZjU44f4ItKbDlVjQA1-38" style="edgeStyle=orthogonalEdgeStyle;rounded=0;orthogonalLoop=1;jettySize=auto;html=1;entryX=1;entryY=0.75;entryDx=0;entryDy=0;" edge="1" parent="v3ZjU44f4ItKbDlVjQA1-1">
          <mxGeometry relative="1" as="geometry">
            <mxPoint x="360" y="160" as="sourcePoint" />
            <mxPoint x="215" y="232.5" as="targetPoint" />
            <Array as="points">
              <mxPoint x="360" y="233" />
            </Array>
          </mxGeometry>
        </mxCell>
        <mxCell id="v3ZjU44f4ItKbDlVjQA1-46" style="edgeStyle=orthogonalEdgeStyle;rounded=0;orthogonalLoop=1;jettySize=auto;html=1;entryX=0.5;entryY=0;entryDx=0;entryDy=0;" edge="1" parent="v3ZjU44f4ItKbDlVjQA1-1" source="v3ZjU44f4ItKbDlVjQA1-44" target="v3ZjU44f4ItKbDlVjQA1-28">
          <mxGeometry relative="1" as="geometry" />
        </mxCell>
        <mxCell id="v3ZjU44f4ItKbDlVjQA1-44" value="Edit Data" style="rounded=1;whiteSpace=wrap;html=1;" vertex="1" parent="v3ZjU44f4ItKbDlVjQA1-1">
          <mxGeometry x="40" y="500" width="175" height="30" as="geometry" />
        </mxCell>
        <mxCell id="v3ZjU44f4ItKbDlVjQA1-2" value="Sistem" style="swimlane;whiteSpace=wrap;html=1;" vertex="1" parent="1">
          <mxGeometry x="430" y="80" width="220" height="710" as="geometry" />
        </mxCell>
        <mxCell id="v3ZjU44f4ItKbDlVjQA1-23" value="Menampilkan Kelas-Kelas" style="rounded=1;whiteSpace=wrap;html=1;" vertex="1" parent="v3ZjU44f4ItKbDlVjQA1-2">
          <mxGeometry x="22.5" y="140" width="175" height="30" as="geometry" />
        </mxCell>
        <mxCell id="v3ZjU44f4ItKbDlVjQA1-24" value="Menampilkan Pilihan Kelas" style="rounded=1;whiteSpace=wrap;html=1;" vertex="1" parent="v3ZjU44f4ItKbDlVjQA1-2">
          <mxGeometry x="26.5" y="300" width="175" height="30" as="geometry" />
        </mxCell>
        <mxCell id="v3ZjU44f4ItKbDlVjQA1-26" value="Menampilkan Menu Edit" style="rounded=1;whiteSpace=wrap;html=1;" vertex="1" parent="v3ZjU44f4ItKbDlVjQA1-2">
          <mxGeometry x="20" y="440" width="175" height="30" as="geometry" />
        </mxCell>
        <mxCell id="v3ZjU44f4ItKbDlVjQA1-49" style="edgeStyle=orthogonalEdgeStyle;rounded=0;orthogonalLoop=1;jettySize=auto;html=1;entryX=0.5;entryY=0;entryDx=0;entryDy=0;" edge="1" parent="v3ZjU44f4ItKbDlVjQA1-2" source="v3ZjU44f4ItKbDlVjQA1-29" target="v3ZjU44f4ItKbDlVjQA1-30">
          <mxGeometry relative="1" as="geometry" />
        </mxCell>
        <mxCell id="v3ZjU44f4ItKbDlVjQA1-29" value="Menyimpan data" style="rounded=1;whiteSpace=wrap;html=1;" vertex="1" parent="v3ZjU44f4ItKbDlVjQA1-2">
          <mxGeometry x="20" y="560" width="175" height="30" as="geometry" />
        </mxCell>
        <mxCell id="v3ZjU44f4ItKbDlVjQA1-30" value="" style="ellipse;html=1;shape=endState;fillColor=#000000;strokeColor=#ff0000;" vertex="1" parent="v3ZjU44f4ItKbDlVjQA1-2">
          <mxGeometry x="92.5" y="640" width="30" height="30" as="geometry" />
        </mxCell>
        <mxCell id="v3ZjU44f4ItKbDlVjQA1-37" style="edgeStyle=orthogonalEdgeStyle;rounded=0;orthogonalLoop=1;jettySize=auto;html=1;exitX=1;exitY=0.5;exitDx=0;exitDy=0;entryX=0;entryY=0.5;entryDx=0;entryDy=0;" edge="1" parent="1" source="v3ZjU44f4ItKbDlVjQA1-21" target="v3ZjU44f4ItKbDlVjQA1-23">
          <mxGeometry relative="1" as="geometry" />
        </mxCell>
        <mxCell id="v3ZjU44f4ItKbDlVjQA1-39" style="edgeStyle=orthogonalEdgeStyle;rounded=0;orthogonalLoop=1;jettySize=auto;html=1;" edge="1" parent="1" source="v3ZjU44f4ItKbDlVjQA1-22" target="v3ZjU44f4ItKbDlVjQA1-24">
          <mxGeometry relative="1" as="geometry">
            <Array as="points">
              <mxPoint x="308" y="395" />
            </Array>
          </mxGeometry>
        </mxCell>
        <mxCell id="v3ZjU44f4ItKbDlVjQA1-40" style="edgeStyle=orthogonalEdgeStyle;rounded=0;orthogonalLoop=1;jettySize=auto;html=1;" edge="1" parent="1" source="v3ZjU44f4ItKbDlVjQA1-24" target="v3ZjU44f4ItKbDlVjQA1-25">
          <mxGeometry relative="1" as="geometry">
            <Array as="points">
              <mxPoint x="544" y="465" />
            </Array>
          </mxGeometry>
        </mxCell>
        <mxCell id="v3ZjU44f4ItKbDlVjQA1-43" style="edgeStyle=orthogonalEdgeStyle;rounded=0;orthogonalLoop=1;jettySize=auto;html=1;exitX=0.986;exitY=0.5;exitDx=0;exitDy=0;entryX=0;entryY=0.5;entryDx=0;entryDy=0;exitPerimeter=0;" edge="1" parent="1" source="v3ZjU44f4ItKbDlVjQA1-27" target="v3ZjU44f4ItKbDlVjQA1-26">
          <mxGeometry relative="1" as="geometry" />
        </mxCell>
        <mxCell id="v3ZjU44f4ItKbDlVjQA1-45" style="edgeStyle=orthogonalEdgeStyle;rounded=0;orthogonalLoop=1;jettySize=auto;html=1;entryX=1;entryY=0.5;entryDx=0;entryDy=0;" edge="1" parent="1" source="v3ZjU44f4ItKbDlVjQA1-26" target="v3ZjU44f4ItKbDlVjQA1-44">
          <mxGeometry relative="1" as="geometry">
            <Array as="points">
              <mxPoint x="530" y="595" />
            </Array>
          </mxGeometry>
        </mxCell>
        <mxCell id="v3ZjU44f4ItKbDlVjQA1-48" style="edgeStyle=orthogonalEdgeStyle;rounded=0;orthogonalLoop=1;jettySize=auto;html=1;" edge="1" parent="1" source="v3ZjU44f4ItKbDlVjQA1-28" target="v3ZjU44f4ItKbDlVjQA1-29">
          <mxGeometry relative="1" as="geometry" />
        </mxCell>
      </root>
    </mxGraphModel>
  </diagram>
</mxfile>
